<?xml version="1.0" encoding="utf-8"?>
<!-- Generator: Adobe Illustrator 23.0.2, SVG Export Plug-In . SVG Version: 6.00 Build 0)  -->
<svg version="1.1" id="Layer_1" xmlns="http://www.w3.org/2000/svg" xmlns:xlink="http://www.w3.org/1999/xlink" x="0px" y="0px"
	 viewBox="0 0 156 120" style="enable-background:new 0 0 156 120;" xml:space="preserve">
<style type="text/css">
	.st0{fill:#2ABC57;}
	.st1{fill:#22A86B;}
</style>
<title>Group 13 Copy</title>
<desc>Created with Sketch.</desc>
<g>
	<g>
		<path class="st0" d="M41,73.1c0,0,6.8-15.6-12.3-28c0,0,16.5,12.9,9,29.7c0,0-18.2,1.8-17.2-12.3c1-13.7,3-16.1-1.5-26.4
			c0,0,39,7.4,27.4,33.8c-3.4,7.8,1.5,12.8,1.5,12.8L46,83.9l-4.6-8.1C41.4,75.8,40.5,74.3,41,73.1z"/>
		<g>
			<path class="st1" d="M25.6,58.9c0.6-16.3-6.6-22.8-6.6-22.8c4.5,10.3,2.6,12.7,1.5,26.4c-1,14.1,17.2,12.3,17.2,12.3
				c0.5-1.2,0.9-2.4,1.2-3.5C35.7,71.8,25,72.7,25.6,58.9z"/>
		</g>
	</g>
	<g>
		<path class="st0" d="M85.2,73.1c0,0,6.8-15.6-12.3-28c0,0,16.5,12.9,9,29.7c0,0-18.2,1.8-17.2-12.3c1-13.7,3-16.1-1.5-26.4
			c0,0,39,7.4,27.4,33.8c-3.4,7.8,1.5,12.8,1.5,12.8l-1.9,1.3l-4.6-8.1C85.7,75.8,84.8,74.3,85.2,73.1z"/>
		<g>
			<path class="st1" d="M69.9,58.9c0.6-16.3-6.6-22.8-6.6-22.8c4.5,10.3,2.6,12.7,1.5,26.4c-1,14.1,17.2,12.3,17.2,12.3
				c0.5-1.2,0.9-2.4,1.2-3.5C80,71.8,69.3,72.7,69.9,58.9z"/>
		</g>
	</g>
	<g>
		<path class="st0" d="M129.5,73.1c0,0,6.8-15.6-12.3-28c0,0,16.5,12.9,9,29.7c0,0-18.2,1.8-17.2-12.3c1-13.7,3-16.1-1.5-26.4
			c0,0,39,7.4,27.4,33.8c-3.4,7.8,1.5,12.8,1.5,12.8l-1.9,1.3l-4.6-8.1C130,75.8,129.1,74.3,129.5,73.1z"/>
		<g>
			<path class="st1" d="M114.1,58.9c0.6-16.3-6.6-22.8-6.6-22.8c4.5,10.3,2.6,12.7,1.5,26.4c-1,14.1,17.2,12.3,17.2,12.3
				c0.5-1.2,0.9-2.4,1.2-3.5C124.3,71.8,113.6,72.7,114.1,58.9z"/>
		</g>
	</g>
</g>
</svg>
