<?xml version="1.0" encoding="utf-8"?>
<!-- Generator: Adobe Illustrator 23.0.2, SVG Export Plug-In . SVG Version: 6.00 Build 0)  -->
<svg version="1.1" id="Layer_1" xmlns="http://www.w3.org/2000/svg" xmlns:xlink="http://www.w3.org/1999/xlink" x="0px" y="0px"
	 viewBox="0 0 25 25" style="enable-background:new 0 0 25 25;" xml:space="preserve">
<style type="text/css">
	.st0{fill:#FFD700;}
	.st1{fill:#FFFFFF;}
</style>
<g>
	<g>
		<path class="st0" d="M0.5,8.5V8c0-1.93,1.57-3.5,3.5-3.5h17c1.93,0,3.5,1.57,3.5,3.5v0.5H0.5z"/>
		<path class="st0" d="M21,5c1.65,0,3,1.35,3,3H1c0-1.65,1.35-3,3-3H21 M21,4H4C1.79,4,0,5.79,0,8v1h25V8C25,5.79,23.21,4,21,4L21,4
			z"/>
	</g>
	<g>
		<path class="st0" d="M24,9v9c0,1.65-1.35,3-3,3H4c-1.65,0-3-1.35-3-3V9H24 M25,8H0v10c0,2.21,1.79,4,4,4h17c2.21,0,4-1.79,4-4V8
			L25,8z"/>
	</g>
	<g>
		<path class="st1" d="M13.63,0c-2.24,2.72-3.86,6.07-4.58,9.79c0.82-0.34,1.64-0.64,2.47-0.91c-0.88,3.42-0.91,7.26,0.19,11.12
			c-0.36-6.29,2.15-11.48,5.55-14.47c-1.19,0.1-2.4,0.28-3.6,0.55c1.17-1.63,2.55-2.97,4.03-4.01C16.35,1.38,14.99,0.69,13.63,0z"/>
		<path class="st1" d="M5.34,7.85c-0.42,2.14-0.7,4.45,0,6.7c0.35-0.43,0.71-0.83,1.08-1.23c0.53,2.13,1.64,4.23,3.38,6.01
			c-2.05-3.32-2.21-6.9-1.24-9.54c-0.62,0.41-1.23,0.86-1.8,1.36c0.16-1.23,0.9-2.37,1.41-3.38C7.24,7.8,6.29,7.82,5.34,7.85z"/>
		<path class="st1" d="M19.1,7.71c-1.89,1.23-3.51,2.97-4.66,5.11c0.56-0.05,1.12-0.08,1.68-0.09c-1.19,1.92-1.94,4.26-2,6.83
			c0.98-3.91,3.5-6.6,6.14-7.78c-0.75-0.17-1.52-0.29-2.3-0.35c1.02-0.77,2.12-1.33,3.23-1.68C20.49,9.07,19.8,8.39,19.1,7.71z"/>
	</g>
</g>
</svg>
