<?xml version="1.0" encoding="utf-8"?>
<!-- Generator: Adobe Illustrator 23.0.2, SVG Export Plug-In . SVG Version: 6.00 Build 0)  -->
<svg version="1.1" id="Layer_1" xmlns="http://www.w3.org/2000/svg" xmlns:xlink="http://www.w3.org/1999/xlink" x="0px" y="0px"
	 viewBox="0 0 25 25" style="enable-background:new 0 0 25 25;" xml:space="preserve">
<style type="text/css">
	.st0{fill:#FFD700;}
</style>
<g>
	<path class="st0" d="M14,22.5h-3c-1.1,0-2-0.9-2-2v-16c0-1.1,0.9-2,2-2h3c1.1,0,2,0.9,2,2v16C16,21.6,15.1,22.5,14,22.5z"/>
	<path class="st0" d="M5,22.5H2c-1.1,0-2-0.9-2-2v-8c0-1.1,0.9-2,2-2h3c1.1,0,2,0.9,2,2v8C7,21.6,6.1,22.5,5,22.5z"/>
	<path class="st0" d="M23,22.5h-3c-1.1,0-2-0.9-2-2v-4c0-1.1,0.9-2,2-2h3c1.1,0,2,0.9,2,2v4C25,21.6,24.1,22.5,23,22.5z"/>
</g>
</svg>
