<?xml version="1.0" encoding="utf-8"?>
<!-- Generator: Adobe Illustrator 23.0.2, SVG Export Plug-In . SVG Version: 6.00 Build 0)  -->
<svg version="1.1" id="Layer_1" xmlns="http://www.w3.org/2000/svg" xmlns:xlink="http://www.w3.org/1999/xlink" x="0px" y="0px"
	 viewBox="0 0 156 120" style="enable-background:new 0 0 156 120;" xml:space="preserve">
<style type="text/css">
	.st0{fill:#3F4190;}
	.st1{fill:#F9AC8F;}
	.st2{fill:#F48078;}
	.st3{fill:#FF5663;}
	.st4{fill:#040000;}
	.st5{fill:#EA394E;}
	.st6{fill:#FCC7B6;}
	.st7{fill:#F29383;}
	.st8{fill:none;stroke:#F48078;stroke-width:1.4067;stroke-linecap:round;stroke-linejoin:round;stroke-miterlimit:10;}
	.st9{fill:none;stroke:#F48078;stroke-width:1.0872;stroke-linecap:round;stroke-linejoin:round;stroke-miterlimit:10;}
	.st10{fill:#FFBE4A;}
	.st11{fill:#FFFFFF;}
	.st12{fill:#F2942F;}
	.st13{fill:#292E6B;}
	.st14{clip-path:url(#SVGID_2_);fill:#747DBA;}
</style>
<g>
	<g>
		<g>
			<path class="st0" d="M440,1001.3c-2.3-3.4-1.2-8.6,2.3-10.8c1.6-1,3.6-1.3,5.2-2.4c3.3-2.2,3.9-6.8,6.2-10.1
				c2.7-4,7.7-5.9,12.5-6.2c3.8-0.2,8.5,1.1,9.4,4.8c0.3,1.1,0.1,2.2,0.4,3.3c1.2,4.2,7.2,4.6,9.9,8c2,2.5,1.7,6.2,0.5,9.2
				c-0.7,1.8-1.7,3.7-1.2,5.7c0.3,1.2,1.1,2.1,1.4,3.3c0.9,3.1-2.2,6.2-5.3,6.6s-6.3-1.2-9.1-2.7c-2.8-1.5-5.8-3.2-9-3.1
				c-6.7,0.2-11.4,7.7-18.1,8c-1.3,0-2.6-0.2-3.5-1.2c-0.8-0.9-1-2.2-1.1-3.4c-0.3-3.1-0.2-6.2,0-9.4"/>
		</g>
		<g>
			<path class="st1" d="M455,1000.1c-0.5-1.3,0-2.8,0.8-3.9s2-1.9,3.1-2.7c2.3-1.6,5.1-3.2,7.7-2.1c1.3,0.5,2.2,1.7,3,2.8
				c2.6,3.8,4.4,8.1,6,12.5c0.5,1.3,1,2.7,0.9,4.1c-0.1,2.8-2.7,5.3-5.5,5.2c-0.8,0-1.5-0.2-2.3-0.2c-3.1-0.1-6.1,2.3-9.1,1.7
				c-2.2-0.4-3.9-2.3-4.7-4.4c-0.8-2.1-0.9-4.4-0.9-6.6c-0.1-2-0.1-4.1-0.2-6.1c-0.1-2.3-0.1-4.8,1.4-6.5"/>
		</g>
		<g>
			<g>
				<path class="st2" d="M462.6,1001.3c-0.5,1.5-0.8,3-1.1,4.5c-0.1,0.9-0.2,2,0.4,2.8c0.8,1,2.7,0.8,2.9-0.6c0.1-0.7-1-1-1.1-0.3
					c-0.8,0.2-1.2,0-1.1-0.6c0-0.2,0-0.5,0-0.7c0-0.6,0.2-1.2,0.3-1.8c0.2-1,0.5-2,0.8-3C464,1000.9,462.8,1000.6,462.6,1001.3
					L462.6,1001.3z"/>
			</g>
		</g>
		<g>
			<g>
				<path class="st2" d="M458.4,1004.6C458.4,1004.6,458.3,1004.6,458.4,1004.6C458.3,1004.8,458.5,1004.4,458.4,1004.6
					c0.1-0.2,0.3-0.2,0.4-0.3c-0.2,0-0.4,0-0.7,0c0.2,0.1,0.4,0.3,0.6,0.4c0-0.2,0-0.3,0.1-0.5c0.5-0.6-0.3-1.4-0.8-0.8
					c-0.4,0.5-0.5,1-0.4,1.6c0.1,0.2,0.3,0.4,0.6,0.4c0.4,0,0.9,0.1,1.2-0.3c0.2-0.3,0.2-0.7,0.1-1c-0.3-0.6-1.1-1-1.7-0.6
					C457.2,1004,457.8,1005,458.4,1004.6L458.4,1004.6z"/>
			</g>
		</g>
		<g>
			<g>
				<path class="st2" d="M468.8,1003C468.8,1002.9,468.8,1002.9,468.8,1003c0-0.4-0.1-0.7-0.2-1c-0.1,0.1-0.1,0.1-0.2,0
					c-0.7-0.2-1,0.9-0.3,1.1c0.5,0.2,1,0,1.3-0.3s0.2-0.9-0.3-1c-0.6-0.2-1.4,0.2-1.5,0.9C467.5,1003.4,468.6,1003.7,468.8,1003
					L468.8,1003z"/>
			</g>
		</g>
		<g>
			<g>
				<path class="st2" d="M464.3,1012.9c3.1,0.6,7.6,0.3,8-3.7c0.1-0.7-1.1-0.7-1.2,0c-0.2,3.2-4.2,3.1-6.5,2.6
					C463.9,1011.7,463.6,1012.8,464.3,1012.9L464.3,1012.9z"/>
			</g>
		</g>
	</g>
	<g>
		<g>
			<path class="st3" d="M502,1001.3c-2.3-3.4-1.2-8.6,2.3-10.8c1.6-1,3.6-1.3,5.2-2.4c3.3-2.2,3.9-6.8,6.2-10.1
				c2.7-4,7.7-5.9,12.5-6.2c3.8-0.2,8.5,1.1,9.4,4.8c0.3,1.1,0.1,2.2,0.4,3.3c1.2,4.2,7.2,4.6,9.9,8c2,2.5,1.7,6.2,0.5,9.2
				c-0.7,1.8-1.7,3.7-1.2,5.7c0.3,1.2,1.1,2.1,1.4,3.3c0.9,3.1-2.2,6.2-5.3,6.6c-3.2,0.4-6.3-1.2-9.1-2.7s-5.8-3.2-9-3.1
				c-6.7,0.2-11.4,7.7-18.1,8c-1.3,0-2.6-0.2-3.5-1.2c-0.8-0.9-1-2.2-1.1-3.4c-0.3-3.1-0.2-6.2,0-9.4"/>
		</g>
		<g>
			<path class="st1" d="M517,1000.1c-0.5-1.3,0-2.8,0.8-3.9s2-1.9,3.1-2.7c2.3-1.6,5.1-3.2,7.7-2.1c1.3,0.5,2.2,1.7,3,2.8
				c2.6,3.8,4.4,8.1,6,12.5c0.5,1.3,1,2.7,0.9,4.1c-0.1,2.8-2.7,5.3-5.5,5.2c-0.8,0-1.5-0.2-2.3-0.2c-3.1-0.1-6.1,2.3-9.1,1.7
				c-2.2-0.4-3.9-2.3-4.7-4.4c-0.8-2.1-0.9-4.4-0.9-6.6c-0.1-2-0.1-4.1-0.2-6.1c-0.1-2.3-0.1-4.8,1.4-6.5"/>
		</g>
		<g>
			<g>
				<path class="st2" d="M524.6,1001.3c-0.5,1.5-0.8,3-1.1,4.5c-0.1,0.9-0.2,2,0.4,2.8c0.8,1,2.7,0.8,2.9-0.6c0.1-0.7-1-1-1.1-0.3
					c-0.8,0.2-1.2,0-1.1-0.6c0-0.2,0-0.5,0-0.7c0-0.6,0.2-1.2,0.3-1.8c0.2-1,0.5-2,0.8-3C525.9,1000.9,524.8,1000.6,524.6,1001.3
					L524.6,1001.3z"/>
			</g>
		</g>
		<g>
			<g>
				<path class="st2" d="M520.4,1004.6C520.4,1004.6,520.3,1004.6,520.4,1004.6C520.3,1004.8,520.5,1004.4,520.4,1004.6
					c0.1-0.2,0.3-0.2,0.4-0.3c-0.2,0-0.4,0-0.7,0c0.2,0.1,0.4,0.3,0.6,0.4c0-0.2,0-0.3,0.1-0.5c0.5-0.6-0.3-1.4-0.8-0.8
					c-0.4,0.5-0.5,1-0.4,1.6c0.1,0.2,0.3,0.4,0.6,0.4c0.4,0,0.9,0.1,1.2-0.3c0.2-0.3,0.2-0.7,0.1-1c-0.3-0.6-1.1-1-1.7-0.6
					C519.2,1004,519.7,1005,520.4,1004.6L520.4,1004.6z"/>
			</g>
		</g>
		<g>
			<g>
				<path class="st2" d="M530.8,1003C530.8,1002.9,530.8,1002.9,530.8,1003c0-0.4-0.1-0.7-0.2-1c-0.1,0.1-0.1,0.1-0.2,0
					c-0.7-0.2-1,0.9-0.3,1.1c0.5,0.2,1,0,1.3-0.3s0.2-0.9-0.3-1c-0.6-0.2-1.4,0.2-1.5,0.9S530.6,1003.7,530.8,1003L530.8,1003z"/>
			</g>
		</g>
		<g>
			<g>
				<path class="st2" d="M526.3,1012.9c3.1,0.6,7.6,0.3,8-3.7c0.1-0.7-1.1-0.7-1.2,0c-0.2,3.2-4.2,3.1-6.5,2.6
					C525.9,1011.7,525.6,1012.8,526.3,1012.9L526.3,1012.9z"/>
			</g>
		</g>
	</g>
</g>
<g>
	<g>
		<g>
			<path class="st4" d="M93.9,78.3c0,0-7.1,4.5-8.6,11h6.9L93.9,78.3z"/>
			<path class="st4" d="M131.8,82.3c0,0,6,3.8,5.8,7h-11.4C126.3,89.3,128,82.2,131.8,82.3z"/>
			<g>
				<path class="st3" d="M127.4,89.3H88.6c0,0-1.2-12.8,18.2-16.6l15.3,3.9c0,0,5.5,2.3,9.7,5.6C131.8,82.3,128.2,85.4,127.4,89.3z"
					/>
				<path class="st4" d="M119,74l3.2,2.6c0,0-16.1,12.4-23.7,5.9c0,0-4.1-5.5,8.3-9.8"/>
				<g>
					<g>
						<g>
							<path class="st5" d="M120.8,80.7c-0.1,0.2-0.3,0.4-0.4,0.6c-0.3,0.5,0.5,1,0.8,0.5c0.1-0.2,0.3-0.4,0.4-0.6
								C121.9,80.6,121.1,80.2,120.8,80.7L120.8,80.7z"/>
						</g>
					</g>
					<g>
						<g>
							<path class="st5" d="M123.2,85.4c-0.1,0.1-0.1,0.2-0.2,0.4c-0.3,0.5,0.5,1,0.8,0.5c0.1-0.1,0.1-0.2,0.2-0.4
								C124.3,85.3,123.5,84.8,123.2,85.4L123.2,85.4z"/>
						</g>
					</g>
					<g>
						<g>
							<path class="st5" d="M118.3,86.5c0,0.2-0.1,0.4-0.2,0.5c-0.4,0.5,0.4,0.9,0.8,0.5c0.2-0.3,0.3-0.6,0.4-1
								C119.3,85.9,118.4,85.9,118.3,86.5L118.3,86.5z"/>
						</g>
					</g>
					<g>
						<g>
							<path class="st5" d="M113.5,84.7c0,0.2,0,0.3-0.1,0.5c-0.2,0.6,0.7,0.8,0.9,0.2c0.1-0.3,0.1-0.6,0.1-1
								C114.3,83.9,113.4,84.1,113.5,84.7L113.5,84.7z"/>
						</g>
					</g>
					<g>
						<g>
							<path class="st5" d="M105.7,86.6c-0.1,0.1-0.1,0.2-0.2,0.4c-0.3,0.5,0.5,1,0.8,0.5c0.1-0.1,0.1-0.2,0.2-0.4
								C106.8,86.5,106,86.1,105.7,86.6L105.7,86.6z"/>
						</g>
					</g>
					<g>
						<g>
							<path class="st5" d="M99.2,86c0,0.2,0,0.3-0.1,0.5c-0.3,0.5,0.5,1,0.8,0.5c0.2-0.3,0.3-0.6,0.2-1
								C100.1,85.4,99.2,85.4,99.2,86L99.2,86z"/>
						</g>
					</g>
					<g>
						<g>
							<path class="st5" d="M94.6,80.8c0,0.2,0,0.3-0.1,0.4c-0.2,0.6,0.7,0.8,0.9,0.2c0.1-0.2,0.1-0.4,0.1-0.7
								C95.5,80.2,94.6,80.2,94.6,80.8L94.6,80.8z"/>
						</g>
					</g>
					<g>
						<g>
							<path class="st5" d="M93.5,86.9c0,0.2-0.1,0.3-0.1,0.5c-0.1,0.6,0.8,0.8,0.9,0.2c0-0.2,0.1-0.3,0.1-0.5
								C94.5,86.6,93.6,86.3,93.5,86.9L93.5,86.9z"/>
						</g>
					</g>
					<g>
						<g>
							<path class="st5" d="M90.4,84c-0.1,0.2-0.1,0.4-0.2,0.6c-0.2,0.6,0.7,0.8,0.9,0.2c0.1-0.2,0.1-0.4,0.2-0.6
								C91.5,83.7,90.6,83.4,90.4,84L90.4,84z"/>
						</g>
					</g>
					<g>
						<g>
							<path class="st5" d="M96.3,77.8c-0.1,0.2-0.3,0.4-0.4,0.6c-0.3,0.5,0.5,1,0.8,0.5c0.1-0.2,0.3-0.4,0.4-0.6
								C97.5,77.8,96.7,77.3,96.3,77.8L96.3,77.8z"/>
						</g>
					</g>
					<g>
						<g>
							<path class="st5" d="M125.3,82.4c0,0.1-0.1,0.2-0.1,0.3c-0.2,0.6,0.7,0.8,0.9,0.2c0-0.1,0.1-0.2,0.1-0.3
								C126.4,82.1,125.5,81.8,125.3,82.4L125.3,82.4z"/>
						</g>
					</g>
				</g>
			</g>
		</g>
		<g>
			<g>
				<path class="st6" d="M111.6,32.2c3.9,1.8,8,3.8,10.2,7.5c2.1,3.3,3.7,6.9,3.7,10.8c0,3.2-1.5,6.9-2.7,9.8
					c-0.8,2-2.1,3.7-2.9,5.7c-0.7,1.7-1,3.6-0.8,5.5c0.1,0.9,0.2,1.8-0.1,2.5c-0.4,0.8-1.3,1.2-2.2,1.6c-2.3,0.9-4.5,1.8-6.8,2.8
					c-1.8,0.8-4.2,1.4-5.6,0c-1.5-1.5,0.5-5.3-0.7-7c-0.8-1.1-3.4-0.3-4.5-1.1c-1.5-1-2.4-2.7-3.1-4.4C94,60.7,93,55.1,93.2,49.5
					c0.1-2.3,0.4-4.5,1.2-6.6c1.3-3.3,3.7-6,6.6-8.2C104,32.4,105.6,31.4,111.6,32.2"/>
			</g>
			<path class="st7" d="M103.7,71.3c0,0,10-1.6,11.9-6.1c0,0-4.7,10.5-11.7,12.3C103.8,77.5,104,74.2,103.7,71.3z"/>
			<path class="st8" d="M96.9,47.1c0,0,6.3,2.4,1.3,9.4l2,1"/>
			<circle class="st2" cx="96.1" cy="50.5" r="1.1"/>
			<circle class="st2" cx="107.7" cy="52.3" r="1.1"/>
			<path class="st8" d="M108.9,48.2c0,0-2.6-0.9-3.9,1.3"/>
			<path class="st9" d="M106.1,60.2c0,0-2.5,3.4-5.9,1.8"/>
			<path class="st10" d="M123.6,52.3c0,0-5.6-2.7-5.6,3.3l-0.1-3.6c0,0,0.8-6.5-1.4-8.8c-2.2-2.3-14.6-7.5-22-0.3
				c0,0,2.2-14.8,21.1-13c19,1.8,13.9,29.2,5.6,33.8c0,0-4.3-3.5,0.5-4.7C124.8,58.2,125.1,53,123.6,52.3z"/>
			<g>
				<g>
					<path class="st10" d="M127.8,38c0.7,0.9,1.3,1.9,1.8,2.9c0.5,1.1,2.1,0.1,1.6-0.9c-0.6-1.2-1.3-2.3-2.1-3.3
						c-0.3-0.4-1-0.3-1.3,0C127.4,37.1,127.5,37.7,127.8,38L127.8,38z"/>
				</g>
			</g>
			<g>
				<g>
					<path class="st11" d="M95.3,44.1c9.7-2.9,20.2-1.6,26.2,7.5c1.2,1.8,4.1,0.1,2.9-1.7c-6.8-10.4-18.7-12.3-30-9
						C92.3,41.5,93.2,44.7,95.3,44.1L95.3,44.1z"/>
				</g>
			</g>
			<g>
				<g>
					<path class="st12" d="M103.9,37.5c0.9-1,2-1.8,3.2-2.5c0.5-0.3,0.1-1.1-0.5-0.8c-1.3,0.7-2.4,1.6-3.4,2.7
						C102.9,37.3,103.5,38,103.9,37.5L103.9,37.5z"/>
				</g>
			</g>
			<g>
				<g>
					<path class="st12" d="M114.7,37.8c1-0.5,2.1-0.7,3.2-0.7c0.6,0,0.6-0.9,0-0.9c-1.3,0-2.5,0.3-3.6,0.8
						C113.7,37.3,114.2,38.1,114.7,37.8L114.7,37.8z"/>
				</g>
			</g>
			<g>
				<g>
					<path class="st7" d="M121.8,54.3c-0.1,0-0.2,0-0.1,0.1c0,0.1,0,0.2,0,0.3c0,0.1-0.1,0.3-0.1,0.4c-0.2,0.3-0.6,0.4-0.9,0.6
						c-0.4,0.3-0.7,0.7-0.5,1.3c0.1,0.6,1,0.3,0.9-0.2c-0.1-0.2,0.6-0.5,0.8-0.6c0.2-0.1,0.3-0.3,0.4-0.5c0.3-0.4,0.4-0.9,0.3-1.4
						c-0.1-0.4-0.3-0.8-0.7-0.9c-0.4-0.1-0.8,0.1-0.9,0.4C120.7,54.4,121.5,54.9,121.8,54.3L121.8,54.3z"/>
				</g>
			</g>
			<g>
				<path class="st10" d="M130.9,37.9c-0.1-2.3,1.3-4.5,3.3-5.6s4.4-1.2,6.6-0.6c0.9,0.3,1.8,0.7,2.6,1.3c1.1,1,1.8,2.4,2,3.9
					c0.6,3.6-0.9,7.1-2,10.6c-1.3,4.4-1.8,9.5,0.6,13.5c2.1,3.3,5.8,5.2,9.5,6.6c-2.5,1.9-6.1,1.2-9.2,0.4c-2.7-0.7-5.8-1.8-6.4-4.5
					c-0.1,1.4,0,2.8,0.3,4.1c-3.1-1.5-3.9-5.6-3.8-9c0.1-2,0.3-4.1,0.7-6.1c0.6-2.7,1.5-5.4,1.2-8.1c-0.2-2.7-2.1-5.6-4.8-5.9"/>
			</g>
			<g>
				<g>
					<path class="st12" d="M134.4,37.3c2.6-0.4,5.6,3.3,5.2,5.7c-0.1,0.6,0.8,0.8,0.9,0.2c0.6-3.2-3-7.4-6.3-6.9
						C133.5,36.5,133.8,37.4,134.4,37.3L134.4,37.3z"/>
				</g>
			</g>
			<g>
				<g>
					<path class="st12" d="M140,60.8c0.5,1.7,1.6,3.1,3.2,3.9c0.5,0.3,1-0.5,0.5-0.8c-1.4-0.7-2.4-1.9-2.8-3.4
						C140.8,60,139.9,60.2,140,60.8L140,60.8z"/>
				</g>
			</g>
		</g>
	</g>
	<g>
		<g>
			<path class="st4" d="M64.1,78.3c0,0,7.1,4.5,8.6,11h-6.9L64.1,78.3z"/>
			<path class="st4" d="M25.4,80.8c0,0-7.5,3.3-7.5,8.5h13.8C31.7,89.3,29.3,80.8,25.4,80.8z"/>
			<g>
				<path class="st3" d="M30.7,89.3h38.7c0,0,1.2-12.8-18.2-16.6l-16.4,3.1c0,0-5.2,1.7-9.4,5C25.4,80.8,29.8,85.4,30.7,89.3z"/>
				<path class="st4" d="M39.1,74l-4.2,1.8c0,0,17.1,13.2,24.7,6.7c0,0,4.1-5.5-8.3-9.8"/>
				<g>
					<g>
						<g>
							<path class="st5" d="M36.4,81.1c0.1,0.2,0.3,0.4,0.4,0.6c0.3,0.5,1.1,0,0.8-0.5c-0.1-0.2-0.3-0.4-0.4-0.6
								C36.9,80.2,36.1,80.6,36.4,81.1L36.4,81.1z"/>
						</g>
					</g>
					<g>
						<g>
							<path class="st5" d="M34,85.8c0.1,0.1,0.1,0.2,0.2,0.4c0.3,0.5,1.1,0.1,0.8-0.5c-0.1-0.1-0.1-0.2-0.2-0.4
								C34.5,84.9,33.7,85.3,34,85.8L34,85.8z"/>
						</g>
					</g>
					<g>
						<g>
							<path class="st5" d="M38.7,86.5c0,0.4,0.1,0.7,0.4,1c0.4,0.5,1.2,0,0.8-0.5c-0.1-0.2-0.2-0.3-0.2-0.5
								C39.6,85.9,38.7,85.9,38.7,86.5L38.7,86.5z"/>
						</g>
					</g>
					<g>
						<g>
							<path class="st5" d="M43.7,84.4c0,0.4,0,0.7,0.1,1c0.2,0.6,1.1,0.3,0.9-0.2c-0.1-0.2-0.1-0.3-0.1-0.5
								C44.6,84.1,43.7,83.9,43.7,84.4L43.7,84.4z"/>
						</g>
					</g>
					<g>
						<g>
							<path class="st5" d="M51.5,87.1c0.1,0.1,0.1,0.2,0.2,0.4c0.3,0.5,1.1,0.1,0.8-0.5c-0.1-0.1-0.1-0.2-0.2-0.4
								C52.1,86.1,51.3,86.5,51.5,87.1L51.5,87.1z"/>
						</g>
					</g>
					<g>
						<g>
							<path class="st5" d="M57.8,86c0,0.4,0.1,0.7,0.2,1c0.3,0.5,1.1,0,0.8-0.5c-0.1-0.2-0.1-0.3-0.1-0.5
								C58.8,85.4,57.9,85.4,57.8,86L57.8,86z"/>
						</g>
					</g>
					<g>
						<g>
							<path class="st5" d="M62.5,80.8c0,0.2,0,0.5,0.1,0.7c0.2,0.5,1.1,0.3,0.9-0.2c-0.1-0.2-0.1-0.3-0.1-0.4
								C63.4,80.2,62.5,80.2,62.5,80.8L62.5,80.8z"/>
						</g>
					</g>
					<g>
						<g>
							<path class="st5" d="M63.6,87.1c0,0.2,0.1,0.3,0.1,0.5c0.1,0.6,1,0.3,0.9-0.2c0-0.2-0.1-0.3-0.1-0.5
								C64.4,86.3,63.5,86.6,63.6,87.1L63.6,87.1z"/>
						</g>
					</g>
					<g>
						<g>
							<path class="st5" d="M66.7,84.2c0.1,0.2,0.1,0.4,0.2,0.6c0.2,0.6,1.1,0.3,0.9-0.2c-0.1-0.2-0.1-0.4-0.2-0.6
								C67.4,83.4,66.5,83.7,66.7,84.2L66.7,84.2z"/>
						</g>
					</g>
					<g>
						<g>
							<path class="st5" d="M60.9,78.3c0.1,0.2,0.3,0.4,0.4,0.6c0.3,0.5,1.1,0,0.8-0.5c-0.1-0.2-0.3-0.4-0.4-0.6
								C61.4,77.3,60.6,77.8,60.9,78.3L60.9,78.3z"/>
						</g>
					</g>
					<g>
						<g>
							<path class="st5" d="M31.8,82.6c0,0.1,0.1,0.2,0.1,0.3c0.2,0.6,1.1,0.3,0.9-0.2c0-0.1-0.1-0.2-0.1-0.3
								C32.5,81.8,31.6,82.1,31.8,82.6L31.8,82.6z"/>
						</g>
					</g>
				</g>
			</g>
		</g>
		<g>
			<g>
				<path class="st6" d="M46.4,32.2c-3.9,1.8-8,3.8-10.2,7.5c-2.1,3.3-3.7,6.9-3.7,10.8c0,3.2,1.5,6.9,2.7,9.8
					c0.8,2,2.1,3.7,2.9,5.7c0.7,1.7,1,3.6,0.8,5.5c-0.1,0.9-0.2,1.8,0.1,2.5c0.4,0.8,1.3,1.2,2.2,1.6c2.3,0.9,4.5,1.8,6.8,2.8
					c1.8,0.8,4.2,1.4,5.6,0c1.5-1.5-0.5-5.3,0.7-7c0.8-1.1,3.4-0.3,4.5-1.1c1.5-1,2.4-2.7,3.1-4.4c2.1-5.2,3.1-10.8,2.9-16.4
					c-0.1-2.3-0.4-4.5-1.2-6.6c-1.3-3.3-3.7-6-6.6-8.2C54.1,32.4,52.4,31.4,46.4,32.2"/>
			</g>
			<path class="st7" d="M54.4,71.3c0,0-10-1.6-11.9-6.1c0,0,4.7,10.5,11.7,12.3C54.2,77.5,54.1,74.2,54.4,71.3z"/>
			<path class="st8" d="M61.2,47.1c0,0-6.3,2.4-1.3,9.4l-2,1"/>
			<circle class="st2" cx="61.9" cy="50.5" r="1.1"/>
			<circle class="st2" cx="50.3" cy="52.3" r="1.1"/>
			<path class="st8" d="M49.2,48.2c0,0,2.6-0.9,3.9,1.3"/>
			<path class="st9" d="M51.9,60.2c0,0,2.5,3.4,5.9,1.8"/>
			<path class="st0" d="M34.5,52.3c0,0,5.6-2.7,5.6,3.3l1.4-1.3c0,0-2.6-6.4,1.2-7.6c2.1-0.7,1.3-3.7,2.7-4.8
				c2.5-1.9,10.8-6.1,18.2,1.1c0,0-3.8-18.5-21.8-12.3c-17.6,6.1-12.3,23.6-6.4,30.3c0,0,1.9-0.7,0.9-1.9
				C34.5,56.4,32.9,53,34.5,52.3z"/>
			<g>
				<g>
					<path class="st13" d="M54.8,36.9c-1-1.1-2.1-2-3.4-2.7c-0.5-0.3-1,0.5-0.5,0.8c1.2,0.7,2.2,1.5,3.2,2.5
						C54.5,38,55.2,37.3,54.8,36.9L54.8,36.9z"/>
				</g>
			</g>
			<g>
				<g>
					<path class="st13" d="M44.8,37.5c-1.1-0.5-2.4-0.8-3.6-0.8c-0.6,0-0.6,0.9,0,0.9c1.1,0,2.2,0.2,3.2,0.7
						C44.9,38.6,45.3,37.8,44.8,37.5L44.8,37.5z"/>
				</g>
			</g>
			<g>
				<g>
					<path class="st7" d="M37.1,53.9c-0.1-0.3-0.5-0.5-0.9-0.4c-0.4,0.1-0.7,0.5-0.7,0.9c-0.1,0.4,0,0.9,0.3,1.3
						c0.1,0.2,0.3,0.3,0.4,0.5c0.2,0.1,0.9,0.4,0.8,0.6c-0.1,0.6,0.7,0.8,0.9,0.2c0.1-0.5-0.1-1-0.5-1.3c-0.3-0.2-0.6-0.3-0.8-0.6
						c-0.1-0.1-0.2-0.3-0.2-0.5c0-0.1,0-0.1,0-0.2c0.1-0.2,0.1-0.2-0.1-0.2C36.5,54.9,37.3,54.4,37.1,53.9L37.1,53.9z"/>
				</g>
			</g>
			<g>
				<defs>
					<path id="SVGID_1_" d="M34.5,52.3c0,0,5.6-2.7,5.6,3.3l1.4-1.3c0,0-2.6-6.4,1.2-7.6c2.1-0.7,1.3-3.7,2.7-4.8
						c2.5-1.9,10.8-6.1,18.2,1.1c0,0-3.8-18.5-21.8-12.3c-17.6,6.1-12.3,23.6-6.4,30.3c0,0,1.9-0.7,0.9-1.9
						C34.5,56.4,32.9,53,34.5,52.3z"/>
				</defs>
				<clipPath id="SVGID_2_">
					<use xlink:href="#SVGID_1_"  style="overflow:visible;"/>
				</clipPath>
				<path class="st14" d="M28.7,40.3c0,0,12.6-1.1,17.1,3L43.3,58l-7,7.2c0,0-8-3.8-8.2-4.3C27.9,60.4,28.7,40.3,28.7,40.3z"/>
			</g>
		</g>
	</g>
</g>
</svg>
